<svg id="Layer_1" enable-background="new 0 0 512 512" height="512" viewBox="0 0 512 512" width="512" xmlns="http://www.w3.org/2000/svg" xmlns:xlink="http://www.w3.org/1999/xlink"><linearGradient id="SVGID_1_" gradientUnits="userSpaceOnUse" x1="255.983" x2="255.983" y1="10" y2="502"><stop offset="0" stop-color="#a03a8d"/><stop offset="1" stop-color="#1f3c8d"/></linearGradient><path d="m202.14 114.69c0-49.49-40.26-89.75-89.75-89.75s-89.75 40.26-89.75 89.75 40.26 89.75 89.75 89.75 89.75-40.26 89.75-89.75zm-39.58 59.33-38.45-53.33h65.77c-1.63 21.33-11.9 40.27-27.32 53.33zm-44.17-136.85c38.1 2.92 68.6 33.42 71.52 71.52h-71.52zm-83.75 77.52c0-40.85 31.68-74.42 71.75-77.5v77.5c0 1.31.42 2.52 1.14 3.51l45.32 62.86c-11.79 7.21-25.65 11.38-40.45 11.38-42.88 0-77.76-34.88-77.76-77.75zm209.67 87.11c0 3.31 2.69 6 6 6h223.3c3.31 0 6-2.69 6-6s-2.69-6-6-6h-13.43v-99.41c0-3.31-2.69-6-6-6h-31.8c-3.31 0-6 2.69-6 6v99.42h-7.08v-59.08c0-3.31-2.69-6-6-6h-31.8c-3.31 0-6 2.69-6 6v59.08h-7.08v-81.51c0-3.31-2.69-6-6-6h-31.8c-3.31 0-6 2.69-6 6v81.51h-7.08v-46.04c0-3.31-2.69-6-6-6h-31.8c-3.31 0-6 2.69-6 6v46.04h-13.43c-3.31-.01-6 2.68-6 5.99zm184.08-99.41h19.8v93.42h-19.8zm-50.88 40.33h19.8v53.08h-19.8zm-50.88-22.43h19.8v75.51h-19.8zm-50.89 35.47h19.8v40.04h-19.8zm-17.85-134.79c0-3.31 2.69-6 6-6h59.43c3.31 0 6 2.69 6 6s-2.69 6-6 6h-59.43c-3.32 0-6-2.69-6-6zm0 19.93c0-3.31 2.69-6 6-6h25.86c3.31 0 6 2.69 6 6s-2.69 6-6 6h-25.86c-3.32 0-6-2.69-6-6zm60.02 27.11c0 2.62.55 5.12 1.53 7.38l-24.77 22.45c-2.68-1.49-5.75-2.35-9.02-2.35-10.27 0-18.62 8.35-18.62 18.62s8.35 18.62 18.62 18.62 18.62-8.35 18.62-18.62c0-2.62-.55-5.12-1.53-7.38l24.77-22.45c2.68 1.49 5.75 2.35 9.02 2.35 4.57 0 8.75-1.66 12-4.4l20.69 12.44c-.27 1.27-.43 2.58-.43 3.93 0 10.27 8.35 18.62 18.62 18.62s18.62-8.35 18.62-18.62c0-2.74-.61-5.33-1.68-7.68l25.21-23.67c2.61 1.39 5.58 2.19 8.73 2.19 10.27 0 18.62-8.35 18.62-18.62s-8.35-18.62-18.62-18.62-18.62 8.35-18.62 18.62c0 2.74.61 5.33 1.68 7.68l-25.21 23.67c-2.61-1.39-5.58-2.19-8.73-2.19-4.57 0-8.76 1.66-12 4.41l-20.69-12.44c.27-1.27.43-2.58.43-3.93 0-10.27-8.35-18.62-18.62-18.62s-18.62 8.35-18.62 18.61zm-32.26 52.73c-3.65 0-6.62-2.97-6.62-6.62s2.97-6.62 6.62-6.62 6.62 2.97 6.62 6.62c-.01 3.65-2.98 6.62-6.62 6.62zm152.64-76.53c3.65 0 6.62 2.97 6.62 6.62s-2.97 6.62-6.62 6.62-6.62-2.97-6.62-6.62c0-3.66 2.97-6.62 6.62-6.62zm-50.88 47.77c3.65 0 6.62 2.97 6.62 6.62s-2.97 6.62-6.62 6.62-6.62-2.97-6.62-6.62 2.97-6.62 6.62-6.62zm-50.88-30.58c3.65 0 6.62 2.97 6.62 6.62s-2.97 6.62-6.62 6.62-6.62-2.97-6.62-6.62 2.97-6.62 6.62-6.62zm78.37 342.81c19.89 0 38.59-7.75 52.65-21.81 29.03-29.03 29.03-76.27 0-105.31-14.06-14.07-32.76-21.81-52.65-21.81s-38.59 7.75-52.65 21.81-21.81 32.76-21.81 52.65 7.75 38.59 21.81 52.65c14.06 14.07 32.76 21.82 52.65 21.82zm-44.17-118.63c11.8-11.8 27.48-18.29 44.17-18.29s32.37 6.5 44.17 18.29c24.35 24.36 24.35 63.98 0 88.34-11.8 11.8-27.48 18.29-44.17 18.29s-32.37-6.5-44.17-18.29c-11.8-11.8-18.3-27.48-18.3-44.17s6.5-32.38 18.3-44.17zm44.17 95.65c13.19 0 26.38-5.02 36.42-15.06 9.73-9.73 15.09-22.66 15.09-36.42s-5.36-26.69-15.09-36.42-22.66-15.09-36.42-15.09-26.69 5.36-36.42 15.09-15.09 22.66-15.09 36.42 5.36 26.69 15.09 36.42c10.04 10.04 23.23 15.06 36.42 15.06zm-27.94-79.42c7.46-7.46 17.38-11.57 27.94-11.57s20.47 4.11 27.94 11.57c7.46 7.46 11.57 17.38 11.57 27.94s-4.11 20.47-11.57 27.94c-15.4 15.4-40.47 15.4-55.87 0-7.46-7.46-11.57-17.38-11.57-27.94s4.1-20.48 11.56-27.94zm33.5 39.15c0-3.66-1.67-5.21-5.57-5.21-10.51 0-17.57-6.92-17.57-17.22 0-7.43 4.83-13.75 11.57-16.16v-2.91c0-3.31 2.69-6 6-6s6 2.69 6 6v2.91c6.74 2.41 11.57 8.73 11.57 16.16 0 3.31-2.69 6-6 6s-6-2.69-6-6c0-2.88-2.5-5.21-5.57-5.21s-5.57 2.34-5.57 5.21c0 3.66 1.67 5.22 5.57 5.22 10.51 0 17.57 6.92 17.57 17.21 0 7.43-4.83 13.75-11.57 16.16v2.91c0 3.31-2.69 6-6 6s-6-2.69-6-6v-2.91c-6.74-2.41-11.57-8.73-11.57-16.16 0-3.31 2.69-6 6-6s6 2.69 6 6c0 2.88 2.5 5.22 5.57 5.22s5.57-2.35 5.57-5.22zm-300.72-105.47h-60.83c-3.31 0-6-2.69-6-6s2.69-6 6-6h64.64c2.32 0 4.43 1.34 5.42 3.44l14.15 29.94c1.42 3 .14 6.57-2.86 7.99-.83.39-1.7.58-2.56.58-2.25 0-4.4-1.27-5.43-3.44zm263.71 0h-125.62l-12.15 25.7c-1.02 2.17-3.18 3.44-5.43 3.44-.86 0-1.73-.18-2.56-.58-3-1.42-4.28-4.99-2.86-7.99l13.77-29.13c.99-2.1 3.1-3.44 5.42-3.44h129.41c3.31 0 6 2.69 6 6s-2.67 6-5.98 6zm-23.47 190.44-33.21 25.08c-1.08.82-2.35 1.21-3.61 1.21-1.82 0-3.61-.82-4.79-2.38-2-2.64-1.47-6.41 1.17-8.4l34.82-26.29c1.04-.79 2.31-1.21 3.62-1.21h100.85c3.31 0 6 2.69 6 6s-2.69 6-6 6h-98.85zm40.16 14.87h-39.43c-3.31 0-6 2.69-6 6v29.87c0 3.31 2.69 6 6 6h39.43c3.31 0 6-2.69 6-6v-29.87c0-3.31-2.69-6-6-6zm-6 29.87h-27.43v-17.87h27.43zm70.68-24.57c0 3.31-2.69 6-6 6h-41.04c-3.31 0-6-2.69-6-6s2.69-6 6-6h41.04c3.31 0 6 2.68 6 6zm15.92 26.51c0 3.31-2.69 6-6 6h-56.96c-3.31 0-6-2.69-6-6s2.69-6 6-6h56.96c3.32 0 6 2.69 6 6zm-278.38-420.74h39.43c3.31 0 6-2.69 6-6v-29.87c0-3.31-2.69-6-6-6h-39.43c-3.31 0-6 2.69-6 6v29.87c0 3.31 2.69 6 6 6zm6-29.87h27.43v17.87h-27.43zm.33 366.17c9.87-5.36 17.82-14.3 23.23-26.41 11.64-26.07 8.71-61.1-6.52-78.08-10.66-11.88-23.59-17.42-40.7-17.42-17.16 0-30.12 5.54-40.78 17.42-15.23 16.98-18.16 52-6.52 78.07 5.41 12.12 13.36 21.06 23.24 26.42-41.35.56-74.84 37.33-74.84 82.48v9.21c0 12.21 9.3 22.14 20.72 22.14h156.28c11.43 0 20.72-9.93 20.72-22.14v-9.21c0-45.14-33.48-81.91-74.83-82.48zm-60.34-31.31c-9.55-21.4-7.45-51.85 4.5-65.17 8.44-9.41 17.97-13.43 31.85-13.43 13.64 0 23.44 4.14 31.77 13.43 11.95 13.32 14.05 43.77 4.5 65.17-5.12 11.48-15.58 25.17-36.3 25.17-20.73.01-31.2-13.69-36.32-25.17zm123.17 123c0 5.59-3.91 10.14-8.72 10.14h-17.53v-21.69c0-3.31-2.69-6-6-6s-6 2.69-6 6v21.69h-97.24v-21.69c0-3.31-2.69-6-6-6s-6 2.69-6 6v21.69h-17.53c-4.81 0-8.72-4.55-8.72-10.14v-9.21c0-38.88 28.62-70.5 63.79-70.5h46.16c35.17 0 63.79 31.63 63.79 70.5z" fill="url(#SVGID_1_)"/></svg>